<svg width="18" height="18" viewBox="0 0 18 18" fill="none" xmlns="http://www.w3.org/2000/svg">
<path d="M0 3.72414C0 1.66735 1.66735 0 3.72414 0H14.2759C16.3326 0 18 1.66735 18 3.72414V14.2759C18 16.3326 16.3326 18 14.2759 18H3.72414C1.66735 18 0 16.3326 0 14.2759V3.72414Z" fill="#FFDE33"/>
<path d="M14.8624 11.3517C14.7536 11.074 14.4541 10.9074 14.1819 11.0185L11.4872 11.9904C11.0789 11.4073 10.4256 11.0185 9.66342 11.0185C9.58176 11.0185 9.5001 11.0185 9.44567 11.0185L6.94144 4.43712C6.85978 4.21497 6.66923 4.0761 6.45148 4.0761H3.64785C3.34843 4.0761 3.10345 4.32603 3.10345 4.63149C3.10345 4.93694 3.34843 5.18687 3.64785 5.18687H6.09764L8.43855 11.4072C7.8397 11.796 7.45863 12.4903 7.45863 13.2678C7.45863 14.5174 8.43855 15.5171 9.66345 15.5171C10.8883 15.5171 11.8683 14.5174 11.8683 13.2678C11.8683 13.1845 11.8683 13.1012 11.8683 13.0179L14.5358 12.046C14.808 11.9349 14.9713 11.6294 14.8624 11.3517ZM9.66345 14.4342C9.0374 14.4342 8.52021 13.9065 8.52021 13.2678C8.52021 12.6291 9.0374 12.1015 9.66345 12.1015C10.2895 12.1015 10.8067 12.6014 10.8067 13.2678C10.8067 13.9066 10.2895 14.4342 9.66345 14.4342Z" fill="black"/>
<path d="M13.9642 8.96357L11.6505 2.82647C11.5416 2.54877 11.2422 2.40993 10.97 2.52102L8.46578 3.49294C8.32968 3.54847 8.2208 3.63178 8.16636 3.77065C8.11193 3.90949 8.11193 4.04835 8.16636 4.18719L10.5073 10.3243C10.5889 10.5464 10.7795 10.6853 10.9972 10.6853C11.0517 10.6853 11.1061 10.6575 11.1878 10.6298L13.6648 9.65784C13.8009 9.60231 13.9098 9.519 13.9642 9.38014C14.0186 9.24124 14.0186 9.10241 13.9642 8.96357ZM11.2694 9.43564L9.33681 4.29828L10.8611 3.71512L12.7665 8.85248L11.2694 9.43564Z" fill="black"/>
</svg>
