<svg width="89" height="47" viewBox="0 0 89 47" fill="none" xmlns="http://www.w3.org/2000/svg">
<path d="M2.53601 0.417969H5.83401V21.838H18.312V25H2.53601V0.417969Z" fill="black"/>
<path d="M21.6804 17.826C21.6804 16.4206 22.0091 15.1513 22.6664 14.018C23.3464 12.8846 24.2757 11.9893 25.4544 11.332C26.6331 10.6746 27.9704 10.346 29.4664 10.346C31.0077 10.346 32.3564 10.6746 33.5124 11.332C34.6684 11.9893 35.5637 12.8846 36.1984 14.018C36.8331 15.1513 37.1504 16.4206 37.1504 17.826C37.1504 19.2313 36.8331 20.512 36.1984 21.668C35.5637 22.8013 34.6571 23.6966 33.4784 24.354C32.3224 25.0113 30.9737 25.34 29.4324 25.34C27.9364 25.34 26.5991 25.034 25.4204 24.422C24.2644 23.7873 23.3464 22.9146 22.6664 21.804C22.0091 20.6706 21.6804 19.3446 21.6804 17.826ZM24.8424 17.86C24.8424 18.7666 25.0464 19.594 25.4544 20.342C25.8624 21.0673 26.4064 21.6453 27.0864 22.076C27.7891 22.5066 28.5597 22.722 29.3984 22.722C30.2824 22.722 31.0644 22.5066 31.7444 22.076C32.4471 21.6453 32.9911 21.0673 33.3764 20.342C33.7617 19.594 33.9544 18.7666 33.9544 17.86C33.9544 16.9533 33.7617 16.1373 33.3764 15.412C32.9911 14.664 32.4471 14.0746 31.7444 13.644C31.0644 13.1906 30.2824 12.964 29.3984 12.964C28.5371 12.964 27.7551 13.1906 27.0524 13.644C26.3724 14.0973 25.8284 14.698 25.4204 15.446C25.0351 16.1713 24.8424 16.976 24.8424 17.86Z" fill="black"/>
<path d="M48.1977 31.97C47.1551 31.97 46.2371 31.8453 45.4437 31.596C44.6504 31.3693 43.9251 31.0406 43.2677 30.61C42.6331 30.1793 42.0211 29.692 41.4317 29.148L43.2677 27.006C44.0157 27.7086 44.7751 28.2526 45.5457 28.638C46.3164 29.0233 47.1777 29.216 48.1297 29.216C49.1951 29.216 50.0904 29.0346 50.8157 28.672C51.5637 28.332 52.1304 27.8446 52.5157 27.21C52.9011 26.598 53.0937 25.884 53.0937 25.068L53.1277 21.26L53.3997 21.872C52.9917 22.8466 52.2551 23.674 51.1897 24.354C50.1244 25.0113 48.8324 25.34 47.3137 25.34C46.0217 25.34 44.8317 25.0113 43.7437 24.354C42.6784 23.6966 41.8171 22.8126 41.1597 21.702C40.5251 20.5686 40.2077 19.2993 40.2077 17.894C40.2077 16.4206 40.5477 15.1286 41.2277 14.018C41.9077 12.8846 42.8031 11.9893 43.9137 11.332C45.0244 10.6746 46.2371 10.346 47.5517 10.346C48.7984 10.346 49.9317 10.6066 50.9517 11.128C51.9944 11.6266 52.7537 12.2726 53.2297 13.066L53.0597 13.644L53.3997 10.924H56.2897V25.102C56.2897 26.3713 55.9611 27.5273 55.3037 28.57C54.6464 29.6126 53.7171 30.44 52.5157 31.052C51.3144 31.664 49.8751 31.97 48.1977 31.97ZM43.3697 17.826C43.3697 18.7326 43.5851 19.56 44.0157 20.308C44.4464 21.056 45.0244 21.6453 45.7497 22.076C46.4977 22.5066 47.3251 22.722 48.2317 22.722C49.0704 22.722 49.8184 22.5746 50.4757 22.28C51.1557 21.9626 51.7224 21.5433 52.1757 21.022C52.6291 20.478 52.9464 19.8546 53.1277 19.152V16.364C52.9237 15.684 52.5837 15.0946 52.1077 14.596C51.6317 14.0746 51.0651 13.678 50.4077 13.406C49.7504 13.1113 49.0251 12.964 48.2317 12.964C47.3251 12.964 46.4977 13.168 45.7497 13.576C45.0244 13.984 44.4464 14.562 44.0157 15.31C43.5851 16.0353 43.3697 16.874 43.3697 17.826Z" fill="black"/>
<path d="M60.5281 17.8259C60.5281 16.4206 60.8567 15.1513 61.5141 14.0179C62.1941 12.8846 63.1234 11.9893 64.3021 11.3319C65.4807 10.6746 66.8181 10.3459 68.3141 10.3459C69.8554 10.3459 71.2041 10.6746 72.3601 11.3319C73.5161 11.9893 74.4114 12.8846 75.0461 14.0179C75.6807 15.1513 75.9981 16.4206 75.9981 17.8259C75.9981 19.2313 75.6807 20.5119 75.0461 21.6679C74.4114 22.8013 73.5047 23.6966 72.3261 24.3539C71.1701 25.0113 69.8214 25.3399 68.2801 25.3399C66.7841 25.3399 65.4467 25.0339 64.2681 24.4219C63.1121 23.7873 62.1941 22.9146 61.5141 21.8039C60.8567 20.6706 60.5281 19.3446 60.5281 17.8259ZM63.6901 17.8599C63.6901 18.7666 63.8941 19.5939 64.3021 20.3419C64.7101 21.0673 65.2541 21.6453 65.9341 22.0759C66.6367 22.5066 67.4074 22.7219 68.2461 22.7219C69.1301 22.7219 69.9121 22.5066 70.5921 22.0759C71.2947 21.6453 71.8387 21.0673 72.2241 20.3419C72.6094 19.5939 72.8021 18.7666 72.8021 17.8599C72.8021 16.9533 72.6094 16.1373 72.2241 15.4119C71.8387 14.6639 71.2947 14.0746 70.5921 13.6439C69.9121 13.1906 69.1301 12.9639 68.2461 12.9639C67.3847 12.9639 66.6027 13.1906 65.9001 13.6439C65.2201 14.0973 64.6761 14.6979 64.2681 15.4459C63.8827 16.1713 63.6901 16.9759 63.6901 17.8599Z" fill="#FFDE33"/>
<path d="M6.92002 37.568V44H5.97202V39.896C5.97202 39.728 5.97602 39.552 5.98402 39.368C6.00002 39.184 6.01602 39.004 6.03202 38.828H5.99602L3.89602 44H3.00802L0.96802 38.828H0.93202C0.94802 39.004 0.95602 39.184 0.95602 39.368C0.96402 39.552 0.96802 39.74 0.96802 39.932V44H0.0200195V37.568H1.42402L3.45202 42.74L5.51602 37.568H6.92002Z" fill="black"/>
<path d="M11.4571 37.448C12.0091 37.448 12.4811 37.568 12.8731 37.808C13.2731 38.048 13.5771 38.388 13.7851 38.828C14.0011 39.26 14.1091 39.768 14.1091 40.352V40.988H9.70514C9.72114 41.716 9.90514 42.272 10.2571 42.656C10.6171 43.032 11.1171 43.22 11.7571 43.22C12.1651 43.22 12.5251 43.184 12.8371 43.112C13.1571 43.032 13.4851 42.92 13.8211 42.776V43.7C13.4931 43.844 13.1691 43.948 12.8491 44.012C12.5291 44.084 12.1491 44.12 11.7091 44.12C11.1011 44.12 10.5611 43.996 10.0891 43.748C9.62514 43.5 9.26114 43.132 8.99714 42.644C8.74114 42.148 8.61314 41.544 8.61314 40.832C8.61314 40.128 8.72914 39.524 8.96114 39.02C9.20114 38.516 9.53314 38.128 9.95714 37.856C10.3891 37.584 10.8891 37.448 11.4571 37.448ZM11.4451 38.312C10.9411 38.312 10.5411 38.476 10.2451 38.804C9.95714 39.124 9.78514 39.572 9.72914 40.148H13.0051C13.0051 39.78 12.9491 39.46 12.8371 39.188C12.7251 38.916 12.5531 38.704 12.3211 38.552C12.0971 38.392 11.8051 38.312 11.4451 38.312Z" fill="black"/>
<path d="M20.1866 38.456H18.0866V44H17.0426V38.456H14.9666V37.568H20.1866V38.456Z" fill="black"/>
<path d="M23.8896 37.46C24.6736 37.46 25.2536 37.632 25.6296 37.976C26.0056 38.32 26.1936 38.868 26.1936 39.62V44H25.4256L25.2216 43.088H25.1736C24.9896 43.32 24.7976 43.516 24.5976 43.676C24.4056 43.828 24.1816 43.94 23.9256 44.012C23.6776 44.084 23.3736 44.12 23.0136 44.12C22.6296 44.12 22.2816 44.052 21.9696 43.916C21.6656 43.78 21.4256 43.572 21.2496 43.292C21.0736 43.004 20.9856 42.644 20.9856 42.212C20.9856 41.572 21.2376 41.08 21.7416 40.736C22.2456 40.384 23.0216 40.192 24.0696 40.16L25.1616 40.124V39.74C25.1616 39.204 25.0456 38.832 24.8136 38.624C24.5816 38.416 24.2536 38.312 23.8296 38.312C23.4936 38.312 23.1736 38.364 22.8696 38.468C22.5656 38.564 22.2816 38.676 22.0176 38.804L21.6936 38.012C21.9736 37.86 22.3056 37.732 22.6896 37.628C23.0736 37.516 23.4736 37.46 23.8896 37.46ZM24.2016 40.892C23.4016 40.924 22.8456 41.052 22.5336 41.276C22.2296 41.5 22.0776 41.816 22.0776 42.224C22.0776 42.584 22.1856 42.848 22.4016 43.016C22.6256 43.184 22.9096 43.268 23.2536 43.268C23.7976 43.268 24.2496 43.12 24.6096 42.824C24.9696 42.52 25.1496 42.056 25.1496 41.432V40.856L24.2016 40.892Z" fill="black"/>
<path d="M33.0762 44H32.0082V38.444H30.1122C30.0322 39.46 29.9322 40.328 29.8122 41.048C29.6922 41.76 29.5402 42.34 29.3562 42.788C29.1722 43.236 28.9522 43.564 28.6962 43.772C28.4402 43.98 28.1402 44.084 27.7962 44.084C27.6922 44.084 27.5882 44.076 27.4842 44.06C27.3882 44.052 27.3082 44.032 27.2442 44V43.208C27.2922 43.224 27.3442 43.236 27.4002 43.244C27.4562 43.252 27.5122 43.256 27.5682 43.256C27.7442 43.256 27.9042 43.184 28.0482 43.04C28.1922 42.896 28.3202 42.676 28.4322 42.38C28.5522 42.084 28.6602 41.712 28.7562 41.264C28.8522 40.808 28.9362 40.272 29.0082 39.656C29.0802 39.04 29.1442 38.344 29.2002 37.568H33.0762V44Z" fill="black"/>
<path d="M40.0137 44H38.9457V38.444H37.0497C36.9697 39.46 36.8697 40.328 36.7497 41.048C36.6297 41.76 36.4777 42.34 36.2937 42.788C36.1097 43.236 35.8897 43.564 35.6337 43.772C35.3777 43.98 35.0777 44.084 34.7337 44.084C34.6297 44.084 34.5257 44.076 34.4217 44.06C34.3257 44.052 34.2457 44.032 34.1817 44V43.208C34.2297 43.224 34.2817 43.236 34.3377 43.244C34.3937 43.252 34.4497 43.256 34.5057 43.256C34.6817 43.256 34.8417 43.184 34.9857 43.04C35.1297 42.896 35.2577 42.676 35.3697 42.38C35.4897 42.084 35.5977 41.712 35.6937 41.264C35.7897 40.808 35.8737 40.272 35.9457 39.656C36.0177 39.04 36.0817 38.344 36.1377 37.568H40.0137V44Z" fill="black"/>
<path d="M47.6472 40.772C47.6472 41.308 47.5752 41.784 47.4312 42.2C47.2952 42.608 47.0952 42.956 46.8312 43.244C46.5752 43.532 46.2592 43.752 45.8832 43.904C45.5152 44.048 45.1032 44.12 44.6472 44.12C44.2232 44.12 43.8312 44.048 43.4712 43.904C43.1112 43.752 42.7992 43.532 42.5352 43.244C42.2712 42.956 42.0632 42.608 41.9112 42.2C41.7672 41.784 41.6952 41.308 41.6952 40.772C41.6952 40.06 41.8152 39.46 42.0552 38.972C42.2952 38.476 42.6392 38.1 43.0872 37.844C43.5352 37.58 44.0672 37.448 44.6832 37.448C45.2672 37.448 45.7792 37.58 46.2192 37.844C46.6672 38.1 47.0152 38.476 47.2632 38.972C47.5192 39.46 47.6472 40.06 47.6472 40.772ZM42.7872 40.772C42.7872 41.276 42.8512 41.716 42.9792 42.092C43.1152 42.46 43.3232 42.744 43.6032 42.944C43.8832 43.144 44.2392 43.244 44.6712 43.244C45.1032 43.244 45.4592 43.144 45.7392 42.944C46.0192 42.744 46.2232 42.46 46.3512 42.092C46.4872 41.716 46.5552 41.276 46.5552 40.772C46.5552 40.26 46.4872 39.824 46.3512 39.464C46.2152 39.104 46.0072 38.828 45.7272 38.636C45.4552 38.436 45.0992 38.336 44.6592 38.336C44.0032 38.336 43.5272 38.552 43.2312 38.984C42.9352 39.416 42.7872 40.012 42.7872 40.772Z" fill="black"/>
<path d="M54.7568 37.568V44H53.7008V38.468H50.3768V44H49.3208V37.568H54.7568Z" fill="black"/>
<path d="M59.8691 37.448C60.6611 37.448 61.2971 37.724 61.7771 38.276C62.2651 38.828 62.5091 39.66 62.5091 40.772C62.5091 41.5 62.3971 42.116 62.1731 42.62C61.9571 43.116 61.6491 43.492 61.2491 43.748C60.8571 43.996 60.3931 44.12 59.8571 44.12C59.5291 44.12 59.2371 44.076 58.9811 43.988C58.7251 43.9 58.5051 43.788 58.3211 43.652C58.1451 43.508 57.9931 43.352 57.8651 43.184H57.7931C57.8091 43.32 57.8251 43.492 57.8411 43.7C57.8571 43.908 57.8651 44.088 57.8651 44.24V46.88H56.8091V37.568H57.6731L57.8171 38.444H57.8651C57.9931 38.26 58.1451 38.092 58.3211 37.94C58.5051 37.788 58.7211 37.668 58.9691 37.58C59.2251 37.492 59.5251 37.448 59.8691 37.448ZM59.6771 38.336C59.2451 38.336 58.8971 38.42 58.6331 38.588C58.3691 38.748 58.1771 38.992 58.0571 39.32C57.9371 39.648 57.8731 40.064 57.8651 40.568V40.772C57.8651 41.3 57.9211 41.748 58.0331 42.116C58.1451 42.484 58.3331 42.764 58.5971 42.956C58.8691 43.148 59.2371 43.244 59.7011 43.244C60.0931 43.244 60.4131 43.136 60.6611 42.92C60.9171 42.704 61.1051 42.412 61.2251 42.044C61.3531 41.668 61.4171 41.24 61.4171 40.76C61.4171 40.024 61.2731 39.436 60.9851 38.996C60.7051 38.556 60.2691 38.336 59.6771 38.336Z" fill="black"/>
<path d="M69.7839 40.772C69.7839 41.308 69.7119 41.784 69.5679 42.2C69.4319 42.608 69.2319 42.956 68.9679 43.244C68.7119 43.532 68.3959 43.752 68.0199 43.904C67.6519 44.048 67.2399 44.12 66.7839 44.12C66.3599 44.12 65.9679 44.048 65.6079 43.904C65.2479 43.752 64.9359 43.532 64.6719 43.244C64.4079 42.956 64.1999 42.608 64.0479 42.2C63.9039 41.784 63.8319 41.308 63.8319 40.772C63.8319 40.06 63.9519 39.46 64.1919 38.972C64.4319 38.476 64.7759 38.1 65.2239 37.844C65.6719 37.58 66.2039 37.448 66.8199 37.448C67.4039 37.448 67.9159 37.58 68.3559 37.844C68.8039 38.1 69.1519 38.476 69.3999 38.972C69.6559 39.46 69.7839 40.06 69.7839 40.772ZM64.9239 40.772C64.9239 41.276 64.9879 41.716 65.1159 42.092C65.2519 42.46 65.4599 42.744 65.7399 42.944C66.0199 43.144 66.3759 43.244 66.8079 43.244C67.2399 43.244 67.5959 43.144 67.8759 42.944C68.1559 42.744 68.3599 42.46 68.4879 42.092C68.6239 41.716 68.6919 41.276 68.6919 40.772C68.6919 40.26 68.6239 39.824 68.4879 39.464C68.3519 39.104 68.1439 38.828 67.8639 38.636C67.5919 38.436 67.2359 38.336 66.7959 38.336C66.1399 38.336 65.6639 38.552 65.3679 38.984C65.0719 39.416 64.9239 40.012 64.9239 40.772Z" fill="black"/>
<path d="M75.2615 37.568H76.4135L73.6655 40.664L76.6415 44H75.4175L72.5135 40.736V44H71.4575V37.568H72.5135V40.688L75.2615 37.568Z" fill="black"/>
<path d="M80.2451 37.46C81.0291 37.46 81.6091 37.632 81.9851 37.976C82.3611 38.32 82.5491 38.868 82.5491 39.62V44H81.7811L81.5771 43.088H81.5291C81.3451 43.32 81.1531 43.516 80.9531 43.676C80.7611 43.828 80.5371 43.94 80.2811 44.012C80.0331 44.084 79.7291 44.12 79.3691 44.12C78.9851 44.12 78.6371 44.052 78.3251 43.916C78.0211 43.78 77.7811 43.572 77.6051 43.292C77.4291 43.004 77.3411 42.644 77.3411 42.212C77.3411 41.572 77.5931 41.08 78.0971 40.736C78.6011 40.384 79.3771 40.192 80.4251 40.16L81.5171 40.124V39.74C81.5171 39.204 81.4011 38.832 81.1691 38.624C80.9371 38.416 80.6091 38.312 80.1851 38.312C79.8491 38.312 79.5291 38.364 79.2251 38.468C78.9211 38.564 78.6371 38.676 78.3731 38.804L78.0491 38.012C78.3291 37.86 78.6611 37.732 79.0451 37.628C79.4291 37.516 79.8291 37.46 80.2451 37.46ZM80.5571 40.892C79.7571 40.924 79.2011 41.052 78.8891 41.276C78.5851 41.5 78.4331 41.816 78.4331 42.224C78.4331 42.584 78.5411 42.848 78.7571 43.016C78.9811 43.184 79.2651 43.268 79.6091 43.268C80.1531 43.268 80.6051 43.12 80.9651 42.824C81.3251 42.52 81.5051 42.056 81.5051 41.432V40.856L80.5571 40.892Z" fill="black"/>
<path d="M88.9756 38.456H86.8756V44H85.8316V38.456H83.7556V37.568H88.9756V38.456Z" fill="black"/>
</svg>
