<svg width="16" height="16" viewBox="0 0 16 16" fill="none" xmlns="http://www.w3.org/2000/svg">
<rect width="16" height="16" rx="8" fill="white"/>
<path d="M3.91432 4.6722C3.82473 4.6164 3.75281 4.53347 3.64736 4.50174C3.8726 4.27445 3.96577 4.25781 4.31617 4.38348C4.39833 4.68474 4.46206 4.87697 4.66913 4.98242L4.66068 4.98651C4.38758 5.09248 4.19638 5.38068 3.85596 5.34024C3.90203 5.21534 3.99162 5.10553 3.9952 4.96553L4.18768 4.83473C4.16439 4.83576 4.13879 4.83576 4.11294 4.83473C4.05945 4.83166 4.00058 4.83064 3.96116 4.85188C3.95988 4.85188 3.82115 4.97141 3.6901 5.09478C3.64454 5.13599 3.59438 5.18514 3.45616 5.25066C3.49506 5.05434 3.55317 4.88797 3.91432 4.6722ZM12.2984 3.86108L12.498 3.7459L12.4888 3.58337C12.4269 3.67628 12.3357 3.75153 12.2984 3.86108ZM16 7.99987C16 12.4107 12.4115 15.9997 8.00013 15.9997C3.58849 16 0 12.4115 0 7.99987C0 3.58823 3.58849 0 8.00013 0C12.4115 0 16 3.58874 16 7.99987ZM6.51124 15.2513C6.40502 15.0967 6.40143 15.0821 6.42959 14.9478L6.2174 14.9002C6.40502 14.8533 6.45288 14.849 6.63666 14.8518C6.61336 14.8134 6.57676 14.7609 6.54323 14.7259C6.71498 14.6524 6.9072 14.6283 7.05668 14.5121C7.0961 14.5226 7.1478 14.5367 7.18645 14.5485L7.32287 14.4497C7.32748 14.0983 7.32748 14.0983 7.26477 13.8999C8.22434 13.326 8.22434 13.326 8.07384 12.9813C8.62389 12.3941 8.62389 12.3941 8.6436 12.0337C8.64846 11.9925 8.64923 11.9362 8.65051 11.8929C8.63848 11.8929 7.38635 11.8487 6.63026 11.1394C6.52148 11.1481 6.35587 11.1573 6.08635 11.3636C6.01878 11.3186 5.92996 11.2574 5.86214 11.2136L6.04642 11.0245C5.74747 10.4412 5.6799 10.4348 5.44954 10.402C5.01544 10.3447 5.01544 10.3447 4.88874 9.93745L4.7861 9.83456C4.50557 9.56785 4.15517 9.43296 3.78404 9.29116L3.53883 9.31702C3.32281 9.18904 3.23143 9.13401 3.03793 9.01371C2.74947 9.28809 2.6563 9.22564 2.05737 8.83173C2.05378 8.78258 1.8846 8.49642 1.56107 8.30497L1.50374 8.16752C1.51884 8.03699 1.53573 7.90542 1.55672 7.77514C1.67676 7.63821 1.69775 7.5993 1.74433 7.43293C1.59358 7.41937 1.50015 7.4767 1.3238 7.67993C1.25008 7.64998 1.1779 7.61773 1.11059 7.58446C1.08474 7.48259 1.00514 7.12169 1.05914 6.748C1.18763 6.68682 1.18763 6.68682 1.44896 6.20793C1.92197 6.22354 1.92197 6.22355 2.2048 6.41449C2.27442 6.37737 2.36682 6.3249 2.43772 6.28677L2.50887 6.51431C2.59922 6.52327 2.62021 6.52455 2.76099 6.47157C2.70212 6.78537 2.78684 7.0984 2.77174 7.41041C2.88231 7.31801 3.03179 7.19694 3.14057 7.1048L3.02539 6.85319C3.06941 6.70602 3.09629 6.62386 3.23015 6.38864C3.213 6.4516 3.19662 6.51431 3.18126 6.57753C3.33919 6.46824 3.52911 6.41909 3.68933 6.31518C3.82397 6.31339 3.92865 6.33463 4.03743 6.35459C4.38195 5.94404 4.38195 5.94404 4.48587 5.84396C5.06023 5.59466 5.06023 5.59466 6.54912 5.19461C6.41142 5.1644 6.41142 5.1644 6.29777 5.03719C6.3528 4.97986 6.42396 4.90333 6.47899 4.8442C6.46645 4.84216 6.46645 4.84216 5.81222 4.96066C6.14062 4.69882 6.44699 4.68039 7.01931 4.69882C7.15624 4.70496 7.15624 4.70496 7.6981 4.255C7.5476 4.26421 7.50434 4.27547 7.30112 4.35917C7.32569 4.24015 7.32569 4.24015 7.38276 4.11857C7.34667 4.05586 7.30112 3.96858 7.26682 3.90459C7.30342 3.79223 7.30342 3.79223 7.36843 3.67295C7.19924 3.58746 7.05463 3.5954 6.87469 3.63584C6.63179 3.23143 6.63179 3.23143 6.501 3.20891C6.49844 3.27827 6.49486 3.37093 6.49076 3.43978C6.40758 3.43261 6.32465 3.42596 6.24607 3.417C5.93457 3.7697 5.56216 4.06226 5.2458 4.41138C5.08327 4.223 4.98626 3.65094 4.97551 3.45462C5.07175 3.40497 5.20203 3.34047 5.30032 3.2926L5.5491 3.16539C6.34026 2.67447 6.34026 2.67447 6.63179 2.80783C6.69681 2.74614 6.78485 2.66859 6.85243 2.60946L6.7974 2.45998C6.63794 2.53421 6.58521 2.54726 6.49204 2.57004C6.40527 2.39855 6.46389 2.21452 6.44187 2.03612L6.41858 2.02358C6.10709 2.59154 6.10709 2.59154 5.7705 2.57414C5.76308 2.55289 5.75387 2.52448 5.74465 2.50273C5.59927 2.4907 5.58315 2.48404 5.43367 2.42594C5.36379 2.45717 5.27293 2.49658 5.20484 2.5273C5.21534 2.50733 5.2266 2.48046 5.23633 2.46024C5.19461 2.44821 5.13471 2.43618 5.09197 2.42927C5.08582 2.3791 5.07738 2.31255 5.06996 2.26111C4.40089 2.59769 4.395 2.59129 4.29672 2.48046C4.60821 2.41775 4.6397 2.4111 4.99394 2.24268C4.93993 2.22834 4.88848 2.21247 4.83832 2.19533L4.89693 2.04994C4.83115 2.02537 4.76588 2.00362 4.70624 1.98186C4.53347 2.04994 4.47819 2.05276 4.32999 2.00029C4.37606 1.93272 4.43647 1.84441 4.48203 1.77786C4.3886 1.75534 4.33818 1.73973 4.05817 1.80448C4.07071 1.77786 4.08965 1.74996 4.1068 1.7213C3.75486 1.94014 3.42314 2.18637 3.11574 2.45947C3.12879 2.46459 3.14492 2.47022 3.15848 2.4738C2.92429 2.6819 2.72259 2.8626 2.53984 3.02692C1.42311 4.25244 0.714626 5.85062 0.62325 7.61312C1.79783 8.37996 2.34685 9.76468 2.35402 9.77825C1.51884 11.0849 2.21708 11.4658 2.68215 11.7189C2.71184 11.8359 2.74486 11.9526 2.7789 12.0657C2.96908 12.2595 3.56801 12.7921 4.07736 12.9385C4.26037 13.8454 4.78457 14.5436 5.63971 15.0095C5.91998 15.1044 6.21126 15.1894 6.51124 15.2513ZM11.3432 1.40468C11.3058 1.43463 11.2684 1.46509 11.2195 1.49273C11.5369 1.85567 11.571 1.8933 11.7332 2.18867C11.6877 2.39292 11.6877 2.39292 12.08 2.7057C12.0998 2.69265 12.1243 2.67319 12.143 2.65886C12.1103 2.54931 12.1103 2.54931 11.99 2.39523L12.0122 2.41263L12.0496 2.4477L12.0864 2.4843L12.1236 2.52013L12.1591 2.55494L12.1937 2.59103L12.2275 2.62533L12.262 2.66014C12.282 2.66014 12.3102 2.66014 12.3311 2.66014C12.3995 2.47355 12.3995 2.47355 11.9498 1.89688L12.0772 1.90584L12.2979 2.20659C12.3491 2.21452 12.4205 2.21299 12.4706 2.20044C12.4985 2.18099 12.5162 2.16845 12.5295 2.15821C12.1584 1.87001 11.7624 1.6184 11.3432 1.40468ZM12.3381 2.29054L12.3299 2.278L12.3324 2.28875C12.3429 2.33636 12.3429 2.38524 12.3521 2.43388L12.3675 2.44949C12.4819 2.56492 12.5008 2.61074 12.5052 2.62456C12.5006 2.60946 12.4479 2.46689 12.3381 2.29054ZM11.5722 3.60666L11.585 3.62765L11.5955 3.64608L11.6083 3.66758L11.6201 3.68626L11.6306 3.707L11.6429 3.72747L11.6552 3.74513L11.6651 3.76561L11.6774 3.78481L11.6884 3.80503L11.6997 3.82729L11.712 3.84624L11.723 3.8662L11.7353 3.88668L11.7453 3.90638L11.7575 3.92609C11.7657 3.78404 11.8039 3.71851 11.8935 3.69113L11.7453 3.38705L11.7378 3.39064C11.6598 3.42007 11.6083 3.52859 11.5722 3.60666ZM10.4102 2.62635C10.3099 2.64811 10.241 2.67217 10.1719 2.71671C10.2292 2.75484 10.3017 2.80706 10.3588 2.84468C10.7255 2.78479 10.7289 2.71005 10.7289 2.64504V2.61944C10.618 2.60255 10.5259 2.60613 10.4102 2.62635ZM9.79386 2.16538C9.82534 2.13006 9.85452 2.1234 10.0647 2.13006C10.003 2.04354 9.94103 1.95908 9.87679 1.87692C9.91416 1.87333 9.95051 1.88204 10.0403 1.91096C10.0275 1.86745 10.0066 1.80704 9.99248 1.76327C9.7076 1.51449 9.61188 1.20862 9.61188 1.20683L9.61418 1.19377C9.47161 1.31203 9.4601 1.32201 9.39124 1.27901C9.3549 1.24701 9.32009 1.21092 9.28502 1.17842C9.33749 1.17023 9.38766 1.16076 9.4368 1.14975L9.26813 1.06298L9.25533 1.06656L9.20977 1.08013L9.19569 1.08525C9.1573 1.09958 9.13708 1.13849 9.09638 1.15154C9.08103 1.15717 9.0672 1.15282 9.05441 1.15154C9.03572 1.14617 9.01576 1.1413 8.99707 1.15717C8.96047 1.18584 8.96149 1.23703 8.96917 1.30281C8.91056 1.29411 8.87089 1.23882 8.8069 1.24343C8.72704 1.25034 8.66049 1.24445 8.66049 1.24445C8.64206 1.23831 8.58294 1.21886 8.46213 1.16178C8.45419 1.21758 8.44728 1.29027 8.44242 1.34479C8.41426 1.33916 8.39686 1.33557 8.3257 1.27594C8.23126 1.4313 8.14833 1.53471 7.98784 1.70261C8.05465 1.70543 8.19721 1.75483 8.19721 1.75483C8.29652 1.83315 8.37715 1.98084 8.45803 2.07579C8.46827 2.13799 8.46341 2.18816 8.43986 2.28568C8.47646 2.33073 8.52663 2.38934 8.56246 2.43567C8.5146 2.55289 8.46571 2.65809 8.42041 2.74947L8.39583 2.79426C8.38329 2.9312 8.4826 3.03665 8.49745 3.16258C8.61647 3.19176 8.67994 3.32818 8.81739 3.3246C8.92259 3.32076 8.91901 3.23732 8.90646 3.14799C9.07207 3.11292 9.6559 2.78709 10.0391 2.29745C9.97354 2.30155 9.79719 2.21196 9.79386 2.16538ZM7.25172 2.47329C7.1071 2.64478 7.03236 2.7464 6.9328 2.91302C6.82888 2.90867 6.73187 2.94451 6.63154 2.95756C6.73929 2.96652 6.85345 2.97471 6.96735 2.98213L7.1007 3.23092C7.34949 2.74486 7.50844 2.84366 7.67634 3.01285C7.71909 2.96831 7.79895 2.88845 7.81738 2.76866L7.82122 2.73155C7.70092 2.77225 7.71167 2.5895 7.71807 2.4907C7.61133 2.41954 7.57934 2.36861 7.58318 2.28491C7.55016 2.28209 7.49999 2.26418 7.41143 2.22578C7.30879 2.18176 7.27091 2.18048 7.23636 2.192C7.21819 2.15053 7.19131 2.0973 7.17186 2.05506C7.12399 2.08757 7.08458 2.1124 7.00011 2.1769C6.98143 2.16922 6.98655 2.1321 7.02468 2.02998L7.01342 2.03407C6.85908 2.08552 6.85908 2.08552 6.77001 2.15847C6.77743 2.16205 6.77743 2.16205 6.85089 2.30564C6.98066 2.24319 7.23073 2.32996 7.25172 2.47329ZM6.75312 1.70568L6.76003 1.70031C6.76131 1.66268 6.76489 1.61124 6.76489 1.57182L6.75516 1.57643C6.67838 1.61354 6.62923 1.63965 6.62923 1.63965L6.62463 1.6504C6.60005 1.70005 6.57062 1.74971 6.53735 1.80167C6.56192 1.80346 6.62821 1.81139 6.75312 1.70568ZM6.71779 1.88255L6.71242 1.89407C6.69322 1.9322 6.65611 2.00413 6.68401 2.21247L6.68785 2.22681C6.72854 2.13262 6.72854 2.02486 6.71779 1.88255ZM6.82657 1.33378C6.85703 1.30921 6.85703 1.30921 6.87674 1.1884L6.85934 1.19966C6.58035 1.36347 6.58035 1.36347 6.52148 1.38574C6.65969 1.36424 6.65969 1.36424 6.72624 1.33736C6.7224 1.36603 6.7224 1.38344 6.72982 1.40545C6.73801 1.39956 6.75414 1.38932 6.82657 1.33378ZM5.5294 2.02486C5.52018 2.05378 5.50841 2.07887 5.49458 2.10574C5.48486 2.10472 5.3858 2.11956 5.32361 2.14925C5.41985 2.32996 5.73134 2.35862 6.10862 2.05557L6.15418 2.01846C5.99626 1.99107 5.97911 1.94193 5.96529 1.9084C5.93585 1.9061 5.90053 1.91633 5.80275 1.95575C5.76564 1.92273 5.71547 1.87845 5.68015 1.8462C5.67785 1.74817 5.67785 1.74817 5.6136 1.69084L5.61642 1.69621C5.60797 1.77044 5.52837 1.80755 5.52351 1.88229C5.5189 1.93041 5.54347 1.97751 5.5294 2.02486ZM6.15879 1.87922C6.20179 1.88613 6.24325 1.89355 6.286 1.90047C6.32823 1.85081 6.36816 1.80013 6.4086 1.74996L6.42728 1.72718C6.37712 1.76123 6.32183 1.77914 6.27038 1.80679C6.27166 1.75943 6.25196 1.71515 6.25912 1.66652C6.26655 1.62429 6.27653 1.59997 6.30929 1.56107L6.29496 1.56056C6.24812 1.55211 6.19897 1.56056 6.15265 1.55083C6.12321 1.54546 6.11963 1.53061 6.11553 1.52344C5.97988 1.57361 5.92843 1.59588 5.88415 1.62403L5.89259 1.65756C6.12935 1.66115 6.12935 1.66115 6.1401 1.66294C6.09096 1.69135 6.02774 1.72744 5.9786 1.75432C6.05461 1.77377 6.08277 1.86054 6.15879 1.87922ZM7.91336 1.58308C8.05644 1.57336 8.12503 1.50732 8.19133 1.30076C8.21052 1.24727 8.145 1.19761 8.12913 1.1994C8.1148 1.20222 8.10097 1.21118 8.0764 1.23421C8.02265 1.20785 7.91617 1.23089 7.81456 1.25546C7.71755 1.27824 7.66739 1.28617 7.63027 1.28617C7.64282 1.35247 7.66099 1.39675 7.74597 1.51551C7.45904 1.73742 7.36741 1.80192 7.17391 1.79732C7.20897 1.80269 7.2361 1.81549 7.32441 1.8613C7.57652 1.78375 7.60468 1.77351 7.6702 1.69877C7.70706 1.70236 7.73368 1.71541 7.78257 1.75508C7.82377 1.70312 7.87522 1.63504 7.91336 1.58308ZM6.88033 4.76767L6.88493 4.77228C6.88749 4.77407 7.11171 4.95017 7.1478 5.0377L7.32185 4.84574L6.88033 4.76767ZM3.79274 8.12836L3.54779 7.99424L3.50863 8.00473C3.35915 8.04748 3.33714 8.06105 3.40062 8.30369C3.56136 8.28808 3.56136 8.28808 3.75384 8.5256L3.94094 8.35309L3.79274 8.12836ZM3.00261 7.76849C2.86439 7.58702 2.86081 7.58241 2.63659 7.70296C2.62891 7.64256 2.6046 7.4529 2.42492 7.4529C2.31639 7.44982 2.2524 7.44394 2.14925 7.42935C2.18099 7.47491 2.26827 7.59879 2.5895 7.69119L2.63608 7.70296C2.75868 7.91592 2.75868 7.91592 3.06097 7.98477L3.14185 7.91285C3.10934 7.90056 3.07504 7.8637 3.00261 7.76849ZM14.8334 10.8407C15.1991 9.96561 15.4023 9.00629 15.4023 7.99987C15.4023 6.99013 15.1978 6.02697 14.83 5.14853C14.7811 5.1685 14.7264 5.19025 14.6596 5.21662C14.6678 5.32028 14.6596 5.36021 14.6058 5.53477C14.3711 5.50431 13.938 5.05485 13.9334 5.0505C13.7476 5.15468 13.3588 5.37275 12.7983 5.52402L12.8451 5.5724C12.8425 5.59518 12.8415 5.62256 12.8402 5.64611L12.818 5.65072L12.7947 5.65635L12.7737 5.66326L12.7491 5.66812L12.7243 5.67452L12.6987 5.68066L12.6741 5.68706L12.6472 5.69321C12.413 6.28318 12.2124 6.79202 11.5633 7.70271L11.7706 7.87317C11.8868 8.69684 11.8868 8.69684 11.7606 8.96789C12.8105 9.88933 12.8105 9.88933 13.0409 9.9546C13.0836 9.88728 13.1425 9.79565 13.1881 9.7268C13.5149 9.65206 13.8152 9.56964 14.0885 9.48262C14.9117 9.22846 14.9644 9.2154 14.8334 10.8407ZM12.5999 2.21145C12.9431 2.8626 12.9477 2.87693 12.9513 3.04484C12.8592 3.01694 12.8592 3.01694 12.7425 2.95833C12.7307 3.00261 12.7133 3.05943 12.7002 3.10192C12.6114 3.07069 12.5894 3.06301 12.3734 2.82702C12.3606 2.89741 12.3606 2.89741 12.5674 3.14134C12.5533 3.18126 12.5149 3.22862 12.4809 3.25498C12.4822 3.33023 12.4822 3.42903 12.4832 3.50249C12.2124 3.40548 12.2124 3.40548 12.0629 3.32281C12.0255 3.29235 12.0161 3.28057 12.0079 3.26675L11.9813 3.22964L11.9544 3.19073L11.9265 3.15362L11.8973 3.11702L11.8707 3.07939L11.8428 3.04356L11.8149 3.00645C11.7775 3.03153 11.7271 3.06992 11.6933 3.10243C11.7074 3.15951 11.7307 3.256 12.0775 3.47561C12.0811 3.56289 12.0854 3.67756 12.0867 3.76254C12.1207 3.7953 12.1637 3.83779 12.1978 3.87106L12.1837 3.92405C12.3027 3.93838 12.3027 3.93838 12.6542 4.46565C12.6007 4.49508 12.5456 4.52528 11.9792 4.55728C12.0785 4.76511 12.2024 4.96066 12.304 5.16901L12.2503 5.21918L12.262 5.24836L12.2725 5.27702L12.2843 5.30595L12.2935 5.33385L12.304 5.36123L12.3132 5.3876L12.3237 5.41268L12.3342 5.43904C12.8459 5.2632 12.8679 5.25578 13.1284 5.14444C13.0773 5.02593 13.0222 4.90896 12.9662 4.79404C13.1435 4.63381 13.0478 4.36813 13.2019 4.19843C13.2592 4.17693 13.314 4.15415 13.3657 4.13137C13.7604 4.52733 13.7755 4.54269 13.9892 4.46744C14.0558 4.56675 14.0558 4.56675 14.141 4.67374C14.077 4.54934 14.0325 4.46846 13.7755 4.11934C13.765 4.13751 13.7545 4.1626 13.744 4.18154C13.668 4.15901 13.668 4.15901 13.549 4.0638C13.5631 4.0446 13.5853 4.0208 13.6014 4.00339C13.7545 4.02387 13.7545 4.02387 14.5275 4.63816C14.538 4.56649 14.5226 4.50557 14.497 4.45003C14.4668 4.39628 14.4328 4.34663 14.4026 4.2939C14.3537 4.2294 14.3081 4.16311 14.279 4.08965C13.8246 3.37297 13.2595 2.73718 12.5999 2.21145Z" fill="#F7D22D"/>
</svg>
